<svg width="190" height="50" viewBox="0 0 190 50" fill="none" xmlns="http://www.w3.org/2000/svg">
<path d="M57.7675 6.27659C57.7675 9.73737 54.9524 12.5532 51.4924 12.5532C48.0324 12.5532 45.2172 9.73737 45.2172 6.27659C45.2172 2.81581 48.0324 0 51.4924 0C54.9537 0.00136359 57.7675 2.81581 57.7675 6.27659ZM55.1487 6.28341C55.1487 4.27348 53.5141 2.63854 51.5046 2.63854C49.4952 2.63854 47.8606 4.27348 47.8606 6.28341C47.8606 8.29333 49.4952 9.92828 51.5046 9.92828C53.5141 9.92828 55.1487 8.29333 55.1487 6.28341ZM40.428 46.9387C35.9237 46.9387 31.7003 45.1688 28.5375 41.9535L26.3549 44.1011C30.0984 47.9055 35.0962 50 40.428 50C45.7584 50 50.7562 47.9055 54.5011 44.1011L52.3185 41.9521C49.1543 45.1688 44.9309 46.9387 40.428 46.9387ZM29.0446 27.4367C29.0446 21.1588 34.1515 16.0508 40.428 16.0508C46.7045 16.0508 51.8114 21.1574 51.8114 27.4367C51.8114 33.7147 46.7045 38.8213 40.428 38.8213C34.1515 38.8213 29.0446 33.7147 29.0446 27.4367ZM32.1066 27.4367C32.1066 32.0252 35.8392 35.7587 40.428 35.7587C45.0168 35.7587 48.7494 32.0252 48.7494 27.4367C48.7494 22.8469 45.0168 19.1134 40.428 19.1134C35.8392 19.1134 32.1066 22.8469 32.1066 27.4367ZM14.0731 7.41518C8.7427 7.41518 3.74356 9.50965 0 13.3141L2.18261 15.4631C5.34678 12.2477 9.56885 10.4778 14.0731 10.4778C18.5774 10.4778 22.8008 12.2477 25.9636 15.4631L28.1462 13.3141C24.4027 9.51102 19.4035 7.41518 14.0731 7.41518ZM12.8175 42.263H15.8795V19.2402H12.8175V42.263ZM66.652 14.9831H62.4449V13.2882H72.7636V14.9831H68.5579V25.7295H66.6534V14.9831H66.652ZM100.513 25.7295H98.5213L98.5759 25.6095L104.154 13.2882H106L106.023 13.3372L111.65 25.7295H109.623L108.273 22.6614H101.864L100.513 25.7295ZM107.584 21.0892L105.068 15.3717L102.551 21.0892H107.584ZM92.9046 25.7295H86.9662V13.2882H92.5543C93.968 13.2882 95.0791 13.5772 95.8561 14.1458C96.6414 14.7213 97.0395 15.5285 97.0395 16.5458C97.0395 17.2016 96.8854 17.7784 96.5787 18.2571C96.3115 18.677 95.957 19.0139 95.5276 19.2593C96.1629 19.472 96.6755 19.8238 97.0558 20.3052C97.4743 20.8383 97.687 21.5201 97.687 22.3301C97.687 23.4182 97.2712 24.2664 96.4505 24.8527C95.6394 25.435 94.4465 25.7295 92.9046 25.7295ZM92.8351 20.2247H88.8884V24.1396H92.8351C93.8071 24.1396 94.546 23.9787 95.0327 23.6623C95.514 23.3487 95.7471 22.8687 95.7471 22.191C95.7471 20.8683 94.7942 20.2247 92.8351 20.2247ZM95.1159 16.7558C95.1159 16.1367 94.8896 15.6812 94.4247 15.3622C93.9571 15.0404 93.2741 14.8767 92.3961 14.8767H88.8884V18.6348H92.3961C93.2727 18.6348 93.9557 18.4711 94.4247 18.1493C94.8896 17.8303 95.1159 17.3748 95.1159 16.7558ZM125.103 25.7295H123.111L123.165 25.6095L128.744 13.2882H130.59L130.613 13.3372L136.239 25.7295H134.212L132.862 22.6614H126.454L125.103 25.7295ZM132.174 21.0892L129.657 15.3717L127.141 21.0892H132.174ZM115.254 40.9281L108.044 31.9638L108.018 31.9325H106.456V44.3738H108.378V35.3783L115.588 44.3411L115.614 44.3725H117.176V31.9311H115.254V40.9281ZM154.418 38.0045C153.855 37.7809 153.103 37.5559 152.181 37.3336C151.475 37.1714 150.909 37.0173 150.499 36.8727C150.097 36.7309 149.756 36.5305 149.486 36.2769C149.222 36.0287 149.092 35.7137 149.092 35.3128C149.092 34.7633 149.324 34.3269 149.802 33.9792C150.282 33.6288 151.018 33.4515 151.988 33.4515C152.537 33.4515 153.107 33.5361 153.682 33.7024C154.256 33.8688 154.803 34.1169 155.307 34.4374L155.393 34.4919L156.037 32.9333L155.981 32.8938C155.474 32.5393 154.857 32.2638 154.15 32.0757C153.444 31.8875 152.716 31.792 151.989 31.792C150.941 31.792 150.051 31.9543 149.343 32.2734C148.629 32.5952 148.089 33.0302 147.738 33.5661C147.385 34.1033 147.208 34.7142 147.208 35.3837C147.208 36.1841 147.418 36.8318 147.834 37.3064C148.244 37.7768 148.744 38.1286 149.321 38.355C149.891 38.5786 150.646 38.8036 151.568 39.0245C152.297 39.1977 152.87 39.3558 153.269 39.4949C153.658 39.6299 153.989 39.8276 154.255 40.0813C154.511 40.3267 154.641 40.6512 154.641 41.0453C154.641 41.5935 154.406 42.0203 153.922 42.3516C153.437 42.6857 152.687 42.8548 151.693 42.8548C150.935 42.8548 150.187 42.7239 149.47 42.4648C148.753 42.2057 148.158 41.8676 147.702 41.4558L147.617 41.3794L146.892 42.9053L146.938 42.9475C147.436 43.4098 148.127 43.7902 148.994 44.0793C149.857 44.367 150.765 44.5129 151.695 44.5129C152.742 44.5129 153.636 44.3547 154.357 44.0411C155.082 43.7261 155.632 43.2912 155.989 42.7484C156.347 42.2044 156.529 41.5962 156.529 40.939C156.529 40.1494 156.317 39.5127 155.902 39.0422C155.489 38.5813 154.991 38.2309 154.418 38.0045ZM156.337 20.2806C156.337 21.5856 156.043 22.566 155.465 23.1946C154.889 23.8219 154.044 24.1396 152.952 24.1396C150.686 24.1396 149.583 22.8769 149.583 20.2793V13.2868H147.661V20.3488C147.661 22.1174 148.128 23.4932 149.053 24.4396C149.976 25.3873 151.282 25.8672 152.934 25.8672C154.585 25.8672 155.892 25.39 156.816 24.4491C157.738 23.5082 158.207 22.1283 158.207 20.3488V13.2868H156.337V20.2806ZM139.804 13.2882H137.882V25.7295H146.446V24.0346H139.803V13.2882H139.804ZM172.286 38.9249C172.286 40.2299 171.992 41.2103 171.414 41.8389C170.838 42.4662 169.993 42.7839 168.901 42.7839C166.635 42.7839 165.532 41.5212 165.532 38.9236V31.9311H163.61V38.9931C163.61 40.7617 164.077 42.1376 165.002 43.0839C165.925 44.0316 167.231 44.5116 168.883 44.5116C170.534 44.5116 171.84 44.0343 172.765 43.0921C173.687 42.1512 174.156 40.7712 174.156 38.9918V31.9297H172.286V38.9249ZM190 44.3752L189.982 32.0184V31.9338H188.412L183.411 40.4767L178.367 31.9747L178.343 31.9325H176.772V44.3738H178.623V35.7069L182.9 42.8425L182.925 42.8834H183.828L188.131 35.6564L188.147 44.2893V44.3738H190V44.3752ZM158.913 44.3752H160.835V31.9338H158.913V44.3752ZM140.269 31.9829L145.895 44.3752H143.868L142.518 41.3071H136.11L134.76 44.3752H132.768L132.823 44.2552L138.401 31.9338H140.247L140.269 31.9829ZM139.315 34.0174L136.798 39.7349H141.831L139.315 34.0174ZM126.301 31.9829L131.927 44.3752H129.9L128.55 41.3071H122.141L120.792 44.3752H118.8L118.853 44.2552L124.432 31.9338H126.278L126.301 31.9829ZM125.347 34.0174L122.83 39.7349H127.863L125.347 34.0174ZM83.5198 29.118C83.329 29.3089 83.2322 29.5476 83.2322 29.8271C83.2322 30.1066 83.329 30.3425 83.5212 30.528H83.5226C83.7121 30.7121 83.9452 30.8062 84.2124 30.8062C84.4796 30.8062 84.7113 30.7121 84.9022 30.528C85.0944 30.3425 85.1912 30.1066 85.1912 29.8271C85.1912 29.5476 85.0944 29.3089 84.9036 29.118C84.7127 28.9271 84.4809 28.8303 84.2124 28.8303C83.9425 28.8303 83.7107 28.9271 83.5198 29.118ZM67.47 34.1169C68.1952 33.7229 69.0282 33.5224 69.9443 33.5224C71.3049 33.5224 72.4827 33.9929 73.4438 34.9187L73.5038 34.976L74.7062 33.7733L74.6517 33.7133C74.086 33.0874 73.388 32.6061 72.5795 32.2802C71.7725 31.9557 70.8632 31.792 69.8748 31.792C68.6165 31.792 67.4672 32.0661 66.4598 32.6088C65.4523 33.1515 64.6507 33.9179 64.0795 34.8846C63.5069 35.8514 63.2179 36.9505 63.2179 38.1532C63.2179 39.3558 63.5083 40.4535 64.0795 41.4135C64.6507 42.3748 65.4482 43.1398 66.4516 43.6893C67.4522 44.2361 68.5919 44.5143 69.8393 44.5143C70.7214 44.5143 71.5789 44.3766 72.39 44.1066C73.2026 43.8352 73.9251 43.4411 74.5386 42.9353L74.5699 42.9093V37.9991H72.7172V42.0339C71.9252 42.5316 70.9872 42.7853 69.928 42.7853C69.0227 42.7853 68.1966 42.5821 67.4713 42.1826C66.7461 41.783 66.1694 41.224 65.7577 40.5217C65.3474 39.8195 65.1388 39.0231 65.1388 38.1545C65.1388 37.2736 65.3474 36.4705 65.7577 35.7696C66.1694 35.0674 66.7447 34.511 67.47 34.1169ZM80.9514 28.8303C80.6842 28.8303 80.4511 28.9271 80.2602 29.118C80.0694 29.3076 79.9726 29.5462 79.9726 29.8271C79.9726 30.108 80.0694 30.3439 80.2616 30.528C80.4511 30.7121 80.6842 30.8062 80.9514 30.8062C81.2186 30.8062 81.4504 30.7121 81.6412 30.528C81.8335 30.3439 81.9303 30.1066 81.9303 29.8271C81.9303 29.5476 81.8335 29.3089 81.6426 29.118C81.4504 28.9271 81.2186 28.8303 80.9514 28.8303ZM81.9125 22.6614H75.5038L74.1541 25.7295H72.1624L72.2169 25.6095L77.7954 13.2882H79.6413L79.6645 13.3372L85.2907 25.7295H83.2635L81.9125 22.6614ZM78.7075 15.3717L76.1909 21.0892H81.2241L78.7075 15.3717ZM121.772 24.1041C122.131 23.5601 122.312 22.9519 122.312 22.296C122.312 21.5065 122.101 20.8697 121.685 20.3993C121.276 19.9356 120.778 19.5866 120.207 19.3602C119.644 19.1366 118.891 18.9116 117.97 18.6893C117.264 18.5271 116.698 18.373 116.288 18.2271C115.885 18.0853 115.545 17.8848 115.275 17.6312C115.01 17.383 114.881 17.068 114.881 16.6671C114.881 16.1176 115.112 15.6812 115.591 15.3335C116.071 14.9831 116.807 14.8058 117.776 14.8058C118.326 14.8058 118.896 14.8904 119.471 15.0567C120.045 15.2231 120.591 15.4713 121.096 15.7917L121.182 15.8462L121.825 14.2877L121.769 14.2481C121.262 13.8936 120.646 13.6181 119.938 13.43C119.232 13.2418 118.504 13.1463 117.778 13.1463C116.729 13.1463 115.839 13.3086 115.132 13.6263C114.417 13.9481 113.877 14.3831 113.527 14.919C113.174 15.4563 112.997 16.0685 112.997 16.7367C112.997 17.5371 113.207 18.1848 113.622 18.6593C114.033 19.1298 114.533 19.4816 115.11 19.7079C115.68 19.9315 116.435 20.1565 117.356 20.3774C118.086 20.5506 118.658 20.7088 119.058 20.8479C119.446 20.9829 119.778 21.1806 120.043 21.4342C120.3 21.6797 120.429 22.0042 120.429 22.3983C120.429 22.9464 120.195 23.3732 119.711 23.7046C119.225 24.0373 118.476 24.2064 117.482 24.2064C116.724 24.2064 115.975 24.0755 115.258 23.8178C114.541 23.5587 113.947 23.2205 113.49 22.8087L113.406 22.7324L112.68 24.2596L112.727 24.3018C113.224 24.7641 113.915 25.1445 114.783 25.4336C115.645 25.7213 116.553 25.8672 117.483 25.8672C118.53 25.8672 119.424 25.7091 120.146 25.3954C120.865 25.0832 121.415 24.6482 121.772 24.1041ZM103.733 31.9325H102.163L97.1622 40.4753L92.118 31.9734L92.0935 31.9311H90.523V44.3725H92.3743V35.7055L96.6509 42.8412L96.6755 42.8821H97.5793L101.882 35.6551L101.898 44.2879V44.3725H103.751L103.733 32.0157V31.9325ZM85.9656 38.9249C85.9656 40.2299 85.6725 41.2103 85.0944 41.8389C84.5178 42.4662 83.6725 42.7839 82.5805 42.7839C80.3148 42.7839 79.2119 41.5212 79.2119 38.9236V31.9311H77.2897V38.9931C77.2897 40.7617 77.7573 42.1376 78.6816 43.0839C79.6045 44.0316 80.9105 44.5116 82.5628 44.5116C84.2137 44.5116 85.5211 44.0343 86.4454 43.0921C87.367 42.1512 87.836 40.7712 87.836 38.9918V31.9297H85.9656V38.9249Z" fill="black"/>
</svg>
